<svg width="49" height="65" viewBox="0 0 49 65" fill="none" xmlns="http://www.w3.org/2000/svg">
<path d="M21.995 63.6886C3.54893 36.9473 0.125 34.2028 0.125 24.375C0.125 10.913 11.038 0 24.5 0C37.962 0 48.875 10.913 48.875 24.375C48.875 34.2028 45.4511 36.9473 27.005 63.6886C25.7945 65.4372 23.2053 65.4371 21.995 63.6886ZM24.5 34.5312C30.1092 34.5312 34.6562 29.9842 34.6562 24.375C34.6562 18.7658 30.1092 14.2188 24.5 14.2188C18.8908 14.2188 14.3438 18.7658 14.3438 24.375C14.3438 29.9842 18.8908 34.5312 24.5 34.5312Z" fill="#091156"/>
</svg>
