<svg width="65" height="65" viewBox="0 0 65 65" fill="none" xmlns="http://www.w3.org/2000/svg">
<g clip-path="url(#clip0_184_85)">
<path d="M18.0556 54.1668C15.1667 54.1668 12.2778 51.639 10.8333 50.5556C3.61111 45.5001 1.44444 43.6945 0 42.6112V57.7779C0 59.7719 1.6171 61.389 3.61111 61.389H32.5C34.494 61.389 36.1111 59.7719 36.1111 57.7779V42.6112C34.6667 43.6945 32.5 45.5001 25.2778 50.5556C23.8333 51.639 20.9444 54.1668 18.0556 54.1668ZM32.5 32.5001H3.61111C1.6171 32.5001 0 34.1172 0 36.1112V37.9168C2.88889 40.0834 2.52778 40.0834 13 47.6668C14.0833 48.389 16.25 50.5556 18.0556 50.5556C19.8611 50.5556 22.0278 48.389 23.1111 48.0279C33.5833 40.4445 33.2222 40.4445 36.1111 38.2779V36.1112C36.1111 34.1172 34.494 32.5001 32.5 32.5001ZM61.3889 21.6668H25.2778C23.2838 21.6668 21.6667 23.2839 21.6667 25.2779V28.889H32.5C36.2477 28.889 39.3374 31.7576 39.6895 35.4138L39.7222 35.389V50.5556H61.3889C63.3829 50.5556 65 48.9385 65 46.9445V25.2779C65 23.2839 63.3829 21.6668 61.3889 21.6668ZM57.7778 36.1112H50.5556V28.889H57.7778V36.1112ZM18.0556 25.2779C18.0556 21.2955 21.2954 18.0556 25.2778 18.0556H50.5556V7.22232C50.5556 5.22831 48.9385 3.61121 46.9444 3.61121H10.8333C8.83932 3.61121 7.22222 5.22831 7.22222 7.22232V28.889H18.0556V25.2779Z" fill="#091156"/>
</g>
<defs>
<clipPath id="clip0_184_85">
<rect width="65" height="65" fill="white"/>
</clipPath>
</defs>
</svg>
