<svg width="65" height="65" viewBox="0 0 65 65" fill="none" xmlns="http://www.w3.org/2000/svg">
<g clip-path="url(#clip0_184_66)">
<path d="M63.1452 45.931L48.9265 39.8372C48.3191 39.5784 47.644 39.5238 47.0029 39.6818C46.3618 39.8398 45.7894 40.2018 45.3718 40.7132L39.0749 48.4066C29.1925 43.7471 21.2395 35.7941 16.5801 25.9117L24.2734 19.6149C24.7859 19.198 25.1486 18.6256 25.3067 17.9842C25.4648 17.3428 25.4095 16.6674 25.1494 16.0602L19.0557 1.84143C18.7702 1.18687 18.2652 0.652442 17.6279 0.330302C16.9906 0.00816279 16.2608 -0.0814987 15.5645 0.0767786L2.36133 3.12365C1.68996 3.27869 1.09097 3.6567 0.662105 4.19601C0.233245 4.73531 -0.000154656 5.40405 7.68854e-08 6.09309C7.68854e-08 38.6566 26.3936 64.9993 58.9062 64.9993C59.5955 64.9998 60.2645 64.7665 60.8041 64.3376C61.3437 63.9087 61.7219 63.3096 61.877 62.638L64.9238 49.4349C65.0811 48.7351 64.9895 48.0025 64.6649 47.3629C64.3403 46.7234 63.8029 46.2171 63.1452 45.931Z" fill="#091156"/>
</g>
<defs>
<clipPath id="clip0_184_66">
<rect width="65" height="65" fill="white"/>
</clipPath>
</defs>
</svg>
