<svg width="169" height="25" viewBox="0 0 169 25" fill="none" xmlns="http://www.w3.org/2000/svg">
<path d="M11.2543 2.16155L8.42005 7.90807L2.07891 8.83255C0.941752 8.99748 0.486023 10.3994 1.31068 11.2023L5.89835 15.6728L4.81328 21.9879C4.61797 23.1294 5.82022 23.9845 6.82717 23.4506L12.4999 20.4688L18.1727 23.4506C19.1796 23.9801 20.3819 23.1294 20.1865 21.9879L19.1015 15.6728L23.6891 11.2023C24.5138 10.3994 24.0581 8.99748 22.9209 8.83255L16.5798 7.90807L13.7456 2.16155C13.2378 1.13724 11.7664 1.12422 11.2543 2.16155Z" fill="#FFA800"/>
<path d="M47.2543 2.16155L44.4201 7.90807L38.0789 8.83255C36.9418 8.99748 36.486 10.3994 37.3107 11.2023L41.8983 15.6728L40.8133 21.9879C40.618 23.1294 41.8202 23.9845 42.8272 23.4506L48.4999 20.4688L54.1727 23.4506C55.1796 23.9801 56.3819 23.1294 56.1865 21.9879L55.1015 15.6728L59.6891 11.2023C60.5138 10.3994 60.0581 8.99748 58.9209 8.83255L52.5798 7.90807L49.7456 2.16155C49.2378 1.13724 47.7664 1.12422 47.2543 2.16155Z" fill="#FFA800"/>
<path d="M83.2543 2.16155L80.4201 7.90807L74.0789 8.83255C72.9418 8.99748 72.486 10.3994 73.3107 11.2023L77.8983 15.6728L76.8133 21.9879C76.618 23.1294 77.8202 23.9845 78.8272 23.4506L84.4999 20.4688L90.1727 23.4506C91.1796 23.9801 92.3819 23.1294 92.1865 21.9879L91.1015 15.6728L95.6891 11.2023C96.5138 10.3994 96.0581 8.99748 94.9209 8.83255L88.5798 7.90807L85.7456 2.16155C85.2378 1.13724 83.7664 1.12422 83.2543 2.16155Z" fill="#FFA800"/>
<path d="M119.254 2.16155L116.42 7.90807L110.079 8.83255C108.942 8.99748 108.486 10.3994 109.311 11.2023L113.898 15.6728L112.813 21.9879C112.618 23.1294 113.82 23.9845 114.827 23.4506L120.5 20.4688L126.173 23.4506C127.18 23.9801 128.382 23.1294 128.187 21.9879L127.101 15.6728L131.689 11.2023C132.514 10.3994 132.058 8.99748 130.921 8.83255L124.58 7.90807L121.746 2.16155C121.238 1.13724 119.766 1.12422 119.254 2.16155Z" fill="#FFA800"/>
<path d="M155.254 2.16155L152.42 7.90807L146.079 8.83255C144.942 8.99748 144.486 10.3994 145.311 11.2023L149.898 15.6728L148.813 21.9879C148.618 23.1294 149.82 23.9845 150.827 23.4506L156.5 20.4688L162.173 23.4506C163.18 23.9801 164.382 23.1294 164.187 21.9879L163.101 15.6728L167.689 11.2023C168.514 10.3994 168.058 8.99748 166.921 8.83255L160.58 7.90807L157.746 2.16155C157.238 1.13724 155.766 1.12422 155.254 2.16155Z" fill="#FFA800"/>
</svg>
