<svg width="1440" height="707" viewBox="0 0 1440 707" fill="none" xmlns="http://www.w3.org/2000/svg">
<path d="M927.933 706.6C916.632 684.401 920.776 628.693 1027.76 583.457C1161.49 526.911 1261.95 468.481 1266.34 382.406C1270.74 296.332 1375.59 198.32 1404.47 224.079C1427.57 244.687 1436.7 295.075 1438.37 317.693" stroke="#E3E6FF"/>
<path d="M893.588 705.972C881.512 682.302 885.94 622.902 1000.26 574.668C1143.15 514.376 1250.49 452.074 1255.18 360.296C1259.88 268.517 1371.91 164.01 1402.77 191.477C1427.46 213.45 1437.21 267.177 1439 291.294" stroke="#E3E6FF"/>
<path d="M962.075 705.972C951.516 685.282 955.388 633.361 1055.35 591.201C1180.3 538.5 1274.16 484.042 1278.27 403.819C1282.37 323.596 1380.34 232.248 1407.32 256.256C1428.91 275.463 1437.44 322.425 1439 343.506" stroke="#E3E6FF"/>
<path d="M989.471 705.972C979.518 686.485 983.167 637.585 1077.39 597.877C1195.16 548.242 1283.63 496.952 1287.5 421.396C1291.37 345.84 1383.71 259.805 1409.14 282.417C1429.49 300.506 1437.53 344.737 1439 364.591" stroke="#E3E6FF"/>
<path d="M391.027 0.5C399.696 17.5285 396.517 60.2605 314.452 94.9602C211.87 138.335 134.813 183.155 131.442 249.181C128.071 315.207 47.6425 390.389 25.4886 370.63C7.76555 354.822 0.766214 316.171 -0.518066 298.821" stroke="#E3E6FF"/>
<path d="M417.372 0.981934C426.635 19.1389 423.239 64.7025 335.55 101.702C225.94 147.95 143.603 195.741 140.001 266.142C136.399 336.543 50.4603 416.707 26.7886 395.638C7.85117 378.783 0.372275 337.57 -1 319.071" stroke="#E3E6FF"/>
<path d="M364.837 0.981934C372.937 16.8528 369.967 56.6796 293.29 89.0201C197.443 129.446 125.445 171.219 122.296 232.756C119.146 294.293 43.9984 364.364 23.2991 345.948C6.73972 331.215 0.199957 295.191 -1 279.021" stroke="#E3E6FF"/>
<path d="M343.823 0.981934C351.457 15.9295 348.658 53.4395 276.385 83.8988C186.044 121.973 118.182 161.316 115.213 219.273C112.244 277.23 41.4136 343.226 21.9034 325.881C6.29515 312.005 0.13103 278.077 -1 262.847" stroke="#E3E6FF"/>
</svg>
